<svg height="-1088" viewBox="79.197 282.737 412.06 137.865" width="2500" xmlns="http://www.w3.org/2000/svg"><path d="m147.534 321.884h-8.68v59.57h39.146v-7.828h-30.466zm50.209 33.53h26.21v-7.83h-26.21v-17.87h28.764v-7.83h-37.445v59.57h38.722v-7.828h-30.041zm233.943-63.997h50.89v30.467h8.681v-39.147h-59.571zm-352.489 30.467h8.68v-30.467h50.891v-8.68h-59.571zm8.68 59.571h-8.68v39.147h59.571v-8.68h-50.89zm334.703-26.807v-1.191c6.212-1.618 10.552-7.404 10.552-14.297 0-4.34-1.701-8.255-4.936-11.404-4.085-3.915-9.531-5.872-16.594-5.872h-19.148v59.57h8.51v-23.743h12.765c6.553 0 9.191 2.724 9.191 9.532v14.212h8.68v-12.85c0-9.361-2.212-12.936-9.02-13.957zm-8-4.766h-13.616v-20.169h13.616c6.638 0 9.02 2.213 9.02 8.255v3.574c0 6.213-2.297 8.34-9.02 8.34zm67.997 62.039h-50.891v8.68h59.571v-39.146h-8.68zm-131.652-56.507h26.212v-7.83h-26.212v-17.87h28.765v-7.83h-37.445v59.57h38.721v-7.828h-30.04zm-93.695-33.53h-18.383v59.57h18.553c16.255 0 22.297-12.339 22.297-29.785 0-17.7-6.467-29.785-22.467-29.785zm12.934 37.615c0 11.914-4.765 14.127-13.53 14.127h-9.277v-43.913h9.277c8.765 0 13.53 2.213 13.53 14.127zm39.486-30.211h1.702c7.745 0 10.213 2.893 10.298 10.893h9.361c-.85-11.744-8.68-19.148-20.424-19.148-5.702 0-10.468 1.787-14.042 5.191-5.362 5.02-8.34 13.531-8.34 25.445 0 11.49 2.553 20 7.83 25.275 3.573 3.49 8.51 5.362 13.36 5.362 5.106 0 9.787-2.042 12.17-6.467h1.191v5.616h7.83v-30.722h-23.063v7.83h14.893v4.084c0 8.596-3.15 11.404-11.064 11.404h-1.872c-7.914 0-11.744-2.553-11.744-14.382v-16c0-11.913 4-14.381 11.915-14.381z" fill="#0b0c0c"/></svg>